<svg height="172" viewBox="0 0 240 172" width="240" xmlns="http://www.w3.org/2000/svg"><path d="m97.462227 97.435239c-2.978029-4.622707-6.253353-8.865235-6.818025-16.284083-.563219-7.399782-2.179686-12.553478-6.222746-19.839703-5.83326-10.512441-15.012942-20.654709-26.111654-28.849734-3.52-2.599085-9.020248-7.254666-12.222772-10.345737-3.202526-3.09107-6.010526-5.620128-6.24-5.620128-1.48416 0 2.939443 9.139548 7.552574 15.604271 3.584273 5.022908 10.732883 11.85331 14.866366 14.204616 3.753733 2.135287 4.683832 3.207972 4.683832 5.401875 0 1.899463-2.364172 4.469238-4.111663 4.469238-2.327696 0-18.57458-9.740289-20.879624-12.517699-1.022627-1.23219-1.888713-1.167227-1.888713.141669 0 3.657936 8.741039 12.648827 17.502532 18.00282 5.242884 3.203834 8.097468 5.845402 8.097468 7.49321 0 .433062-.596903 1.546221-1.326451 2.47369-2.030676 2.581587-4.497788 2.220281-10.513549-1.539706-2.816-1.760064-5.769217-3.529018-6.562705-3.931014-2.702924-1.369338-2.326805.139705.84129 3.375379 4.993393 5.099917 14.498325 10.88103 19.551482 11.891667 3.829671.765933 5.083066 5.484173 2.083623 7.843533-2.090416 1.64432-2.449083 1.643488-6.708344-.01555-11.615833-4.524649-21.336123-11.740002-26.762142-19.865532-2.189639-3.279008-2.603204-4.413984-2.603204-7.144148 0-2.474373.338439-3.606074 1.423963-4.761561 1.370959-1.459319 1.383288-1.579966.331201-3.241248-3.096019-4.888723-4.302792-8.203926-4.308912-11.837292-.0072-4.263753 1.097528-6.819858 3.769818-8.722696l1.875385-1.335391-2.769725-5.595065c-1.523349-3.077287-3.109456-7.280502-3.524682-9.34048-2.4039-11.9259783 6.824276-20.8288558 12.834313-12.3818961 6.146599 8.6388931 11.54581 13.9825431 20.498252 20.2873101 5.187597 3.65337 18.621216 16.948231 22.633785 22.4 1.683994 2.288 4.9938 6.558319 5.349512 6.558319.355706 0 2.793515-4.36912 3.604772-6.777877 2.785229-8.269776 5.740396-12.084359 13.700566-15.946801 4.96592-2.409568 4.49523-3.707589 11.71982-3.724168 6.71532-.01541 7.16892 1.313538 11.5352 3.06167 8.19414 3.280688 15.83936 9.356952 18.14043 18.076383.4133 1.566139-.35427 3.825376-.009 3.94058.34561.115205 4.18762-3.489773 6.84072-6.931117 5.89887-7.651401 12.59666-14.091797 22.28105-21.424803 8.54685-6.471662 14.10703-11.94968 18.05904-17.7921858 2.23982-3.3112694 3.27346-4.2755899 5.0663-4.7265563 6.05915-1.52409884 10.46768 5.5621543 9.16643 14.7340621-.24287 1.711872-1.7428 5.90762-3.33319 9.323887l-2.89161 6.211392 2.02652 1.705201c2.73331 2.299925 4.06759 5.636178 3.73102 9.329051-.25963 2.848596-2.7914 8.66042-4.73443 10.868146-.80954.919826-.72419 1.333534.71162 3.44931.89731 1.32227 1.63148 3.231076 1.63148 4.241792 0 6.760182-12.67354 19.737577-24.60542 25.195331-4.53509 2.074394-8.51783 3.508384-9.74414 3.508384-1.4452 0-4.05044-2.996877-4.05044-4.659347 0-1.87337 2.24234-4.052992 4.8-4.665767 5.59886-1.341388 16.38924-8.313913 20.08228-12.976761 1.77277-2.238291 1.91989-2.657805.9315-2.65609-.64558.0013-2.90178 1.168551-5.01378 2.594285-2.112 1.425741-4.90852 3.152819-6.2145 3.837965-4.57593 2.400627-8.1855 1.046445-8.1855-3.070899 0-2.214759 1.94298-3.997818 8.58122-7.874935 6.59797-3.853597 16.37878-13.805876 16.37878-16.665922 0-1.742331-.70394-1.541079-4.2364 1.21116-3.88197 3.024562-10.42628 7.060778-14.62996 9.023063-3.78421 1.76648-5.94131 1.332751-7.28184-1.464169-1.27586-2.662013-.24616-4.288716 4.82871-7.628271 7.74145-5.094313 14.26279-12.436175 19.26889-21.69333 1.96871-3.63984 3.55748-8.190982 2.85977-8.190982-.2024 0-2.41119 2.09498-4.90841 4.655512-2.49723 2.560531-7.13241 6.656202-10.30041 9.10149-17.12142 13.215534-24.62278 21.448696-30.90773 33.922998-3.49137 6.929619-4.61251 10.945632-5.27067 18.88-.64191 7.738413-1.93647 11.67671-5.62248 17.104582-21.19631 12.229334-35.87946 16.782664-48.326693-2.085197zm18.743203-63.119022c-2.19148 0-9.34064 3.061939-12.14343 5.992348-3.09348 3.23435-6.643778 9.611102-6.361046 11.596424 1.328561 22.808822 1.546199 37.197871 1.907575 41.091737.555331 5.090209 12.614201 9.970424 16.378741 11.691294 5.28632-6.760215 2.04735-70.303086.21816-70.371803zm27.89646 53.118908c.21996-12.292557.78964-7.607169.21996-12.292557.47051-13.768111 1.72716-3.300036.48759-10.908032-.25865-9.476254-5.55819-6.601766 1.43263-10.981104.60073-1.565498-5.04588-10.365462-8.06146-13.381044-2.8999-2.899896-8.1313-6.145443-10.34722-6.173252-13.61128-.03941-9.39965 41.589762-2.45347 71.554084 5.76921-3.21224 18.3378-10.784784 18.72197-17.818095z" fill="#36c" stroke-width=".64"/><path d="m119.1098 131.582c-.704-.39321-1.424-.83931-1.6-.99135s-.464-4.3206-.64-9.26348l-.32-8.98705-4.8-1.69629c-9.58388-3.38689-15.851166-9.66068-19.300977-19.321045-1.359699-3.80752-1.482925-5.333894-1.690202-20.936928-.221728-16.690824-.209702-16.873578 1.454471-22.099914 3.940704-12.375801 14.108938-20.457989 26.861848-21.351041 14.32746-1.003315 26.91735 7.728675 31.1273 21.58902 1.22555 4.034861 1.30176 5.600802 1.07822 22.156822-.27515 20.378137-.40079 21.004544-5.78759 28.855897-4.26843 6.221319-8.45008 9.023659-18.86307 12.641119-.58505.20324-.8 2.52664-.8 8.64709 0 8.03247-.0632 8.43238-1.57091 9.94009-1.70369 1.70369-3.1506 1.93329-5.14909.81706zm-2.24-61.928373c0-22.580197-.21608-33.37578-.67372-33.658611-1.11474-.688948-7.64775 2.900889-10.35389 5.68938-2.91855 3.007371-5.61239 7.956053-5.61239 10.310182 0 1.506112.21594 1.621972 3.04 1.631076 1.672.0054 3.38565.22952 3.80812.498067 1.3246.842003 1.98072 3.51738 1.32437 5.400198-.60391 1.732377-2.52699 2.616664-6.89249 3.169364-2.503217.316924-2.011313 2.088971.64 2.30556 4.97634.406528 7.58423 2.997152 6.35693 6.314835-.69635 1.882426-1.67612 2.385434-5.39693 2.770778-2.66287.275769-3.199998.546252-3.199998 1.611398 0 .956557.485168 1.324346 1.919998 1.455494 4.9754.454759 6.72 1.667213 6.72 4.670221 0 2.69833-2.01226 4.434285-5.14008 4.434285-3.31118 0-3.794356 1.180301-1.99735 4.879072 2.72873 5.616544 9.93403 11.646624 14.01743 11.731124l1.44.0298zm13.95395 31.706093c1.66727-.84486 4.41406-3.014298 6.10399-4.820967 3.13329-3.349741 5.92276-8.509139 5.2175-9.650278-.21504-.347943-1.59799-.637031-3.07321-.642419-3.0443-.01114-3.78634-.372135-4.82642-2.348128-1.81763-3.453216.2278-6.087226 5.1074-6.577069 2.89512-.290631 3.43679-.546746 3.43679-1.625005 0-1.096077-.53752-1.327789-3.74077-1.612563-4.00379-.355943-5.53923-1.51984-5.53923-4.198861 0-2.630739 2.10582-4.347936 5.79255-4.723571 1.86761-.190285 3.50447-.703616 3.65002-1.144666.30894-.936257-.36992-1.201114-4.4947-1.753597-3.5208-.471584-5.35567-2.454828-4.69746-5.077326.63879-2.545147 2.14686-3.569416 5.25539-3.569416 1.91205 0 2.97275-.308472 3.21293-.934385.54255-1.413864-2.49574-7.508779-5.28524-10.602366-2.39785-2.659258-9.48185-6.676112-10.5785-5.998349-.62929.388921-.73595 65.760796-.10832 66.388426.68244.68245 1.3522.51975 4.56728-1.10946z" fill="#474847" stroke-width=".64"/><g fill="#393939"><path d="m10.154913 135.72991v21.20534c0 1.32266-.2560004 1.70666-1.2800004 1.70666h-1.3653334c-.512 0-.6826667.21334-.6826667.512v.85334l.1706667.0853s3.3279998-.0853 5.0346668-.0853h14.677334c.08533-2.38934.554666-5.07734 1.024-7.38134l-1.664-.34133c-.682667 2.60267-2.218667 5.76-5.589334 5.76h-3.669333c-.896 0-1.450667-.68267-1.450667-1.96267v-20.352c0-1.19466.554667-1.87733 2.304-1.87733h.64c.170667 0 .298667-.128.298667-.34133v-1.024l-.08533-.0853s-4.266667.0853-5.760001.0853c-1.664 0-5.8453331-.0853-5.8453331-.0853l-.085333.0853v1.024c0 .21333.1706667.34133.3840001.34133h.5973333c1.6640001 0 2.3466671.512 2.3466671 1.87733z"/><path d="m37.845503 146.31125c0-2.13334.128-5.248.128-5.248 0-.0853-.213334-.128-.298667-.128-1.365333.42666-4.352.896-7.296 1.28l.08533 1.28 1.749333.17066c.597334.0427.938667.512.938667 2.64534v10.41066c0 1.19467-.682667 1.62134-2.005333 1.83467l-.512.0853c-.170667.0427-.298667.128-.298667.384v.98134l.08533.0853s3.456001-.0853 4.992001-.0853c1.664 0 5.12.0853 5.12.0853l.08533-.0853v-.98131c0-.256-.213333-.34133-.341333-.384l-.426667-.0853c-1.28-.21333-2.005333-.64-2.005333-1.83467zm-4.949334-10.66667c0 1.408 1.152 2.56 2.56 2.56s2.56-1.152 2.56-2.56-1.152-2.56-2.56-2.56-2.56 1.152-2.56 2.56z"/><path d="m49.920139 143.75125h-.08533l.08533-2.688c0-.0853-.213333-.128-.298666-.128-1.365334.42666-4.181334.896-7.168001 1.28l.08533 1.45066 1.749333.17067c.597334.0427.938667.34133.938667 2.47467v10.45333c0 1.19467-.682667 1.49333-2.048 1.792l-.384.0853c-.213334.0853-.341334.128-.341334.384v.98134l.08533.0853s3.456-.0853 4.949333-.0853c1.664 0 4.906667.0853 4.906667.0853l.08533-.0853v-.98131c0-.256-.213333-.34133-.341333-.384l-.170667-.0427c-1.322666-.29867-2.048-.68267-2.048-1.83467v-11.30663c2.090667-1.32266 3.882667-2.00533 5.162667-2.00533 1.536 0 1.792 1.28 1.792 4.18133v9.13067c0 1.19467-.725333 1.536-2.048 1.83467l-.170667.0427c-.213333.0853-.341333.128-.341333.384v.98134l.08533.0853s3.242667-.0853 4.778667-.0853c1.664 0 5.077334.0853 5.077334.0853l.08533-.0853v-.98138c0-.256-.213333-.34133-.341333-.384l-.341334-.0853c-1.322666-.29867-2.090666-.59733-2.090666-1.792v-8.832c0-3.88267-.64-6.86933-5.205334-6.86933-2.048 0-4.266667 1.024-6.442667 2.688z"/><path d="m78.378797 147.88991c0 4.096-1.706667 4.77867-2.816 4.77867-2.645334 0-3.498667-3.328-3.498667-5.504 0-3.15733 1.28-4.608 2.944-4.608 2.005334 0 3.370667 1.96267 3.370667 5.33333zm-5.504 12.75734c.469333 0 1.152 0 1.792-.0427.554667-.0427.938667-.0853 1.322667-.0853 1.92 0 6.229333.128 6.229333 2.944 0 3.2-4.096 4.90666-7.296 4.90666-1.194667 0-4.394667-1.23733-4.394667-4.26666 0-1.45067.04267-2.688.938667-3.62667.426666.17067.896.17067 1.408.17067zm11.264-16.98134c1.194667 0 1.877334-.68266 1.877334-1.70666 0-.81067-.682667-1.87734-2.304001-1.87734-1.152 0-3.072.68267-4.309333 1.792-.768-.42666-2.090667-.81066-4.010667-.81066-4.096 0-7.850667 2.51733-7.850667 6.48533 0 2.09067 1.024 4.26667 2.602667 5.376-1.28 1.19467-2.218667 2.60267-2.218667 3.92533 0 1.36534.853334 2.38934 2.048 3.11467-2.218666 1.49333-3.456 3.328-3.456 4.992 0 3.79733 3.712 5.20533 7.210667 5.20533 5.930667 0 12.373334-3.11466 12.373334-7.808 0-1.62133-1.706667-4.736-8.661334-4.736-1.621333 0-3.626667.29867-4.010667.29867-.768 0-1.92-.512-1.92-2.21867 0-.68266.04267-1.57866.256-2.09066.896.42666 2.261334.64 3.584001.64 4.010666 0 7.637333-2.304 7.637333-6.48534 0-2.38933-.853333-3.88266-2.304-5.07733.341333-.42667.810667-.768 1.237333-.768.384 0 .512.256.64.512.170667.55467.512 1.23733 1.578667 1.23733z"/><path d="m106.45344 155.10058v-10.19733c0-1.70667.0853-3.49867.0853-3.49867s-1.664.0853-2.56.0853c-1.152 0-4.735998-.0853-4.735998-.0853l-.170667.0853v1.28l.170667.0853 1.322668.0853c.768 0 1.19466.68267 1.19466 2.048v11.73343c-1.57866 1.36534-3.370662 1.57867-4.309328 1.57867-.896 0-2.304-.768-2.304-4.352v-9.04533c0-1.57867.04267-3.49867.04267-3.49867s-1.877333.0853-2.474666.0853c-1.365334 0-4.736001-.0853-4.736001-.0853l-.213333.0853v1.28l.128.0853 1.322667.0853c.981333.0853 1.237333.768 1.237333 2.048v9.55733c0 2.98667.981334 5.888 5.930667 5.888 1.578667 0 3.498667-.64 5.504001-1.92l-.128 2.00534h1.45067c1.10933-.64 2.13333-1.19467 6.016-1.70667l-.0427-1.32267c-2.304-.128-2.73067-1.10933-2.73067-2.38933z"/><path d="m122.1974 157.95925h.0853c.512 1.664 1.62133 2.47466 4.18133 2.47466 2.34667 0 3.968-1.83466 3.968-2.048 0-.29866-.384-.85333-.55467-.85333-.256 0-.29866.68267-1.32266.68267-1.664 0-1.70667-1.62134-1.70667-3.584v-6.18667c0-6.144-3.49867-7.38133-6.99733-7.38133-3.11467 0-7.59467 2.21866-7.59467 4.77866 0 1.10934.46933 1.792 2.00533 1.792 1.19467 0 2.21867-1.024 2.21867-1.62133 0-.512-.256-.98133-.256-1.83467 0-.93866 1.408-1.49333 3.02933-1.49333 1.792 0 2.98667.93867 2.98667 6.35733l-3.072.896c-4.43733 1.32267-7.424 2.64534-7.424 6.016 0 2.944 1.408 4.48 5.12 4.48 1.792 0 3.66933-1.024 5.33333-2.47466zm.0427-1.57867c-1.06667.85333-2.56 1.70667-3.328 1.70667-2.048 0-2.688-1.28-2.688-2.77334 0-1.74933.55467-3.02933 3.584-3.92533l2.432-.72533z"/></g><path d="m145.45066 135.72991v21.20534c0 1.32266-.256 1.70666-1.28 1.70666h-1.36533c-.512 0-.68267.21334-.68267.512v.85334l.17067.0853s3.328-.0853 5.03466-.0853h14.67734c.0853-2.38934.55466-5.07734 1.024-7.38134l-1.664-.34133c-.68267 2.60267-2.21867 5.76-5.58934 5.76h-3.66933c-.896 0-1.45067-.68267-1.45067-1.96267v-20.352c0-1.19466.55467-1.87733 2.304-1.87733h.64c.17067 0 .29867-.128.29867-.34133v-1.024l-.0853-.0853s-4.26667.0853-5.76.0853c-1.664 0-5.84534-.0853-5.84534-.0853l-.0853.0853v1.024c0 .21333.17067.34133.384.34133h.59733c1.664 0 2.34667.512 2.34667 1.87733z" fill="#36c"/><path d="m173.14125 146.31125c0-2.13334.128-5.248.128-5.248 0-.0853-.21333-.128-.29867-.128-1.36533.42666-4.352.896-7.296 1.28l.0853 1.28 1.74934.17066c.59733.0427.93867.512.93867 2.64534v10.41066c0 1.19467-.68267 1.62134-2.00534 1.83467l-.512.0853c-.17067.0427-.29867.128-.29867.384v.98134l.0853.0853s3.456-.0853 4.992-.0853c1.664 0 5.12.0853 5.12.0853l.0853-.0853v-.98131c0-.256-.21333-.34133-.34133-.384l-.42667-.0853c-1.28-.21333-2.00533-.64-2.00533-1.83467zm-4.94934-10.66667c0 1.408 1.15201 2.56 2.56001 2.56s2.56-1.152 2.56-2.56-1.152-2.56-2.56-2.56-2.56001 1.152-2.56001 2.56z" fill="#36c"/><path d="m184.19189 157.61791v-13.056c1.408-.896 2.26133-1.32266 3.28533-1.32266 2.09067 0 3.92533 3.2 3.92533 7.38133 0 4.736-1.70666 8.064-5.07733 8.064-.768 0-1.408-.256-2.13333-1.06667zm-4.69334-21.632v20.864c0 1.62134-.0427 2.432-.17066 3.456l1.45066.256 1.28-2.26133c1.024 1.19467 2.60267 2.13333 4.48 2.13333 4.736 0 9.77067-3.968 9.77067-10.79466 0-5.248-3.584-8.576-7.76533-8.576-1.62134 0-3.11467.896-4.352 1.792v-7.72267c0-2.77333.128-4.48.128-4.48 0-.29867-.29867-.42667-.68267-.42667-1.10933.42667-5.46134.98134-7.168 1.10934l.128 1.23733c0 .128.0853.21333.256.21333l1.36533.0853c.85334 0 1.28.34133 1.28 3.11466z" fill="#36c"/><path d="m206.71985 143.75125h-.0853l.0853-2.688c0-.0853-.21333-.128-.29867-.128-1.36533.42666-4.18133.896-7.168 1.28l.0853 1.45066 1.74933.17067c.59733.0427.93867.34133.93867 2.47467v10.41066c0 1.152-.72534 1.57867-2.048 1.83467l-.42667.0853c-.17067.0427-.29867.128-.29867.384v.98134l.0853.0853s3.41333-.0853 4.94933-.0853c1.664 0 5.07733.0853 5.07733.0853l.0853-.0853v-.98131c0-.256-.21334-.34133-.34134-.384l-.34133-.0853c-1.32267-.29867-2.048-.64-2.048-1.83467v-9.00266c0-1.49334.46933-2.51734 1.10933-2.98667.512-.34133.85334-.55467 1.536-.55467.768 0 1.45067 1.70667 3.15734 1.70667 1.23733 0 2.13333-1.06667 2.13333-2.432 0-1.10933-.93867-2.38933-2.47467-2.38933-1.49333 0-3.328.512-5.46133 2.688z" fill="#36c"/><path d="m221.35442 147.84725c.59733-4.352 3.11467-4.992 4.01067-4.992 1.152 0 2.90133 1.10933 2.90133 4.52266 0 .256 0 .384-.0853.46934zm10.368 7.50933c-1.57867 1.92-3.15733 2.688-4.77867 2.688-3.328 0-5.80266-3.2-5.80266-7.38133v-1.10934h10.368c1.024 0 1.664-.29866 1.664-.896 0-3.62666-1.49334-7.59466-7.76534-7.59466-4.48 0-9.17333 3.968-9.17333 10.496 0 4.69333 2.56 8.87466 9.04533 8.87466 2.944 0 5.93067-.98133 7.50934-4.18133z" fill="#36c"/><text style="font-size:66.666664;font-family:Noto;letter-spacing:0;word-spacing:0;text-anchor:middle;fill:#393939" x="125.38815" xml:space="preserve" y="243.91719"><tspan fill="#393939" font-family="Linux Libertine" font-size="42.666668" font-weight="600" x="125.38815" y="243.91719">Lingua <tspan fill="#36c">Libre</tspan></tspan></text></svg>